# xmcd
#
# Track frame offsets: 
#        150
#        13241
#        27559
#        48122
#        65352
#        76277
#        96353
#        116764
#        129471
#        142951
#        158540
#        175991
#        190350
#        206372
#
# Disc length: 3084 seconds
#
# Revision: 1
# Processed by: cddbd v1.5.2PL0 Copyright (c) Steve Scherf et al.
# Submitted via: ExactAudioCopy v1.0b3
#
DISCID=bb0c0a0e
DTITLE=Albert Lee and Hogan's Heroes - Like This
DYEAR=2008
DGENRE=Country
TTITLE0=Skip Rope Song
TTITLE1=Can Your Grandpa R'n'r Like This
TTITLE2=Leave My Woman Alone
TTITLE3=On The Verge
TTITLE4=I'm Comin' Home
TTITLE5=Runaway Train
TTITLE6=I'll Never Get Over You
TTITLE7=Barnyard Boogie
TTITLE8=Two Step Too
TTITLE9=Why Me?
TTITLE10=Pearl Of The Quarter
TTITLE11=Breathless
TTITLE12=Crying In The Rain
TTITLE13=Rad Gumbo
EXTD=
EXTT0=
EXTT1=
EXTT2=
EXTT3=
EXTT4=
EXTT5=
EXTT6=
EXTT7=
EXTT8=
EXTT9=
EXTT10=
EXTT11=
EXTT12=
EXTT13=
PLAYORDER=
